<?xml version="1.0" encoding="UTF-8" standalone="no"?><!DOCTYPE svg PUBLIC "-//W3C//DTD SVG 1.1//EN" "http://www.w3.org/Graphics/SVG/1.1/DTD/svg11.dtd"><svg width="100%" height="100%" viewBox="0 0 225 225" version="1.1" xmlns="http://www.w3.org/2000/svg" xmlns:xlink="http://www.w3.org/1999/xlink" xml:space="preserve" xmlns:serif="http://www.serif.com/" style="fill-rule:evenodd;clip-rule:evenodd;stroke-linejoin:round;stroke-miterlimit:2;"><g id="Layer1"><path d="M221.833,23.05c0,-10.974 -8.909,-19.882 -19.883,-19.882l-178.9,-0.001c-10.974,0 -19.882,8.909 -19.882,19.883l0,178.9c0,10.974 8.908,19.882 19.882,19.882l178.9,0.001c10.974,0 19.882,-8.909 19.882,-19.883l0.001,-178.9Z" style="fill:#5541e5;"/></g><path d="M39.829,52.075c0.101,11.381 19.501,21.098 46.758,24.938l0,67.56c0,8.276 2.293,14.742 6.879,19.396c4.586,4.655 10.948,6.983 19.086,6.983c8.069,0 14.396,-2.293 18.982,-6.879c4.586,-4.586 6.879,-11.086 6.879,-19.5l0,-67.56c27.331,-3.851 46.758,-13.608 46.758,-25.024l0,90.412c0,8.965 -1.396,17.431 -4.19,25.396c-2.793,7.965 -7.172,14.931 -13.138,20.896c-5.965,5.966 -12.223,10.155 -18.775,12.569c-9.103,3.379 -20.034,5.069 -32.792,5.069c-7.38,0 -15.431,-0.517 -24.155,-1.552c-8.724,-1.034 -16.017,-3.086 -21.879,-6.155c-5.861,-3.069 -11.223,-7.431 -16.086,-13.086c-4.862,-5.655 -8.189,-11.483 -9.982,-17.482c-2.897,-9.656 -4.345,-18.207 -4.345,-25.655l0,-90.412l0,0.086Zm132.609,-13.792c0.453,1.14 0.688,2.305 0.688,3.49c0,12.752 -27.165,23.105 -60.626,23.105c-33.461,0 -60.626,-10.353 -60.626,-23.105c0,-12.751 27.165,-23.104 60.626,-23.104c21.632,0 40.633,4.328 51.365,10.833c-4.569,-1.188 -10.47,-1.78 -16.882,-1.524c-14.226,0.569 -25.614,5.103 -25.413,10.119c0.2,5.016 11.913,8.626 26.141,8.056c12.056,-0.482 22.074,-3.812 24.727,-7.87Z" style="fill:#fff;fill-rule:nonzero;"/></svg>