<?xml version="1.0" encoding="UTF-8" standalone="no"?><!DOCTYPE svg PUBLIC "-//W3C//DTD SVG 1.1//EN" "http://www.w3.org/Graphics/SVG/1.1/DTD/svg11.dtd">
<svg width="100%" height="100%" viewBox="0 0 717 281" version="1.1" xmlns="http://www.w3.org/2000/svg" xmlns:xlink="http://www.w3.org/1999/xlink" xml:space="preserve" xmlns:serif="http://www.serif.com/" style="fill-rule:evenodd;clip-rule:evenodd;stroke-linejoin:round;stroke-miterlimit:2;">
	<text x="224.345px" y="259.938px" style="font-family:'Arial-Black', 'Arial Black', sans-serif;font-weight:900;font-size:200px;fill:#333;">CAN</text>
	<path d="M14.122,58.585c0.136,15.425 26.431,28.596 63.376,33.8l0,91.574c0,11.217 3.108,19.98 9.324,26.29c6.216,6.309 14.839,9.464 25.869,9.464c10.937,0 19.513,-3.108 25.729,-9.324c6.216,-6.216 9.324,-15.026 9.324,-26.43l0,-91.574c37.045,-5.219 63.377,-18.444 63.377,-33.917l0,122.546c0,12.152 -1.893,23.626 -5.679,34.423c-3.786,10.796 -9.721,20.237 -17.807,28.323c-8.086,8.085 -16.568,13.764 -25.449,17.036c-12.338,4.58 -27.154,6.87 -44.447,6.87c-10.002,0 -20.915,-0.701 -32.74,-2.103c-11.825,-1.402 -21.71,-4.183 -29.655,-8.343c-7.946,-4.159 -15.213,-10.072 -21.803,-17.737c-6.59,-7.665 -11.101,-15.563 -13.531,-23.696c-3.926,-13.086 -5.889,-24.677 -5.889,-34.773l0,-122.546l0.001,0.117Zm179.74,-18.694c0.614,1.544 0.933,3.123 0.933,4.73c0,17.284 -36.821,31.316 -82.174,31.316c-45.353,0 -82.174,-14.032 -82.174,-31.316c0,-17.283 36.821,-31.316 82.174,-31.316c29.321,0 55.075,5.865 69.621,14.683c-6.192,-1.61 -14.191,-2.413 -22.882,-2.066c-19.283,0.772 -34.717,6.918 -34.445,13.716c0.272,6.799 16.148,11.692 35.431,10.92c16.342,-0.654 29.92,-5.168 33.516,-10.667Z" style="fill:#333;fill-rule:nonzero;"/>
</svg>
